<svg width="153" height="32" viewBox="0 0 153 32" fill="none" xmlns="http://www.w3.org/2000/svg">
<path d="M45.3413 8.23991C46.0131 8.23991 46.6449 8.37586 47.2366 8.64776C47.8284 8.90367 48.3402 9.26354 48.7721 9.72737C49.2199 10.1752 49.5718 10.711 49.8277 11.3348C50.0836 11.9426 50.2116 12.5983 50.2116 13.3021C50.2116 14.0058 50.0836 14.6696 49.8277 15.2933C49.5718 15.9011 49.2199 16.4369 48.7721 16.9008C48.3402 17.3646 47.8284 17.7325 47.2366 18.0044C46.6449 18.2603 46.0131 18.3882 45.3413 18.3882H41.6227V25.2497H38V8.23991H45.3413ZM44.8615 15.0774C45.3253 15.0774 45.7252 14.9095 46.0611 14.5736C46.4129 14.2217 46.5889 13.7979 46.5889 13.3021C46.5889 12.8222 46.4129 12.4144 46.0611 12.0785C45.7252 11.7266 45.3253 11.5507 44.8615 11.5507H41.6227V15.0774H44.8615Z" fill="#2F2F2F"/>
<path d="M62.8508 13.3501V25.2497H59.9959L59.66 23.9782C59.1962 24.602 58.6364 25.0178 57.9806 25.2257C57.3408 25.4337 56.6691 25.5376 55.9653 25.5376C55.1176 25.5376 54.3339 25.3777 53.6142 25.0578C52.9105 24.7219 52.2947 24.2741 51.7669 23.7143C51.2391 23.1385 50.8232 22.4747 50.5193 21.723C50.2314 20.9553 50.0875 20.1396 50.0875 19.2759C50.0875 18.4122 50.2314 17.6045 50.5193 16.8528C50.8232 16.0851 51.2391 15.4213 51.7669 14.8615C52.2947 14.2857 52.9105 13.8379 53.6142 13.518C54.3339 13.1821 55.1176 13.0142 55.9653 13.0142C56.7331 13.0142 57.4368 13.1341 58.0766 13.374C58.7163 13.614 59.2441 13.9978 59.66 14.5256L59.9959 13.3501H62.8508ZM59.54 19.3239C59.54 18.7001 59.4521 18.1803 59.2761 17.7645C59.1162 17.3326 58.8923 16.9887 58.6044 16.7328C58.3325 16.4609 58.0046 16.269 57.6207 16.157C57.2529 16.0291 56.853 15.9651 56.4212 15.9651C55.9893 15.9651 55.5815 16.0531 55.1976 16.229C54.8298 16.4049 54.5019 16.6449 54.214 16.9487C53.9261 17.2366 53.7022 17.5885 53.5422 18.0044C53.3823 18.4042 53.3023 18.8281 53.3023 19.2759C53.3023 19.7397 53.3823 20.1716 53.5422 20.5714C53.7022 20.9713 53.9261 21.3232 54.214 21.627C54.5019 21.9149 54.8298 22.1469 55.1976 22.3228C55.5815 22.4987 55.9893 22.5867 56.4212 22.5867C57.2849 22.5867 58.0126 22.3228 58.6044 21.795C59.2122 21.2512 59.524 20.4275 59.54 19.3239Z" fill="#2F2F2F"/>
<path d="M67.5387 15.0055C67.6986 14.7495 67.8826 14.5096 68.0905 14.2857C68.2984 14.0458 68.5463 13.8379 68.8342 13.6619C69.1221 13.47 69.45 13.3181 69.8179 13.2061C70.1857 13.0941 70.6016 13.0382 71.0654 13.0382C71.6092 13.0382 72.241 13.1341 72.9607 13.3261L72.6488 16.277C72.4729 16.245 72.297 16.205 72.121 16.157C71.9771 16.125 71.8171 16.1011 71.6412 16.0851C71.4653 16.0531 71.3053 16.0371 71.1614 16.0371C70.6496 16.0371 70.1697 16.1091 69.7219 16.253C69.2901 16.3969 68.9142 16.5969 68.5943 16.8528C68.2744 17.1087 68.0185 17.4206 67.8266 17.7884C67.6347 18.1403 67.5387 18.5242 67.5387 18.94V25.2497H64.2279V13.3501H67.2268L67.5387 15.0055Z" fill="#2F2F2F"/>
<path d="M85.8946 13.3501V25.2497H83.0397L82.7038 23.9782C82.24 24.602 81.6802 25.0178 81.0244 25.2257C80.3846 25.4337 79.7129 25.5376 79.0091 25.5376C78.1615 25.5376 77.3777 25.3777 76.658 25.0578C75.9543 24.7219 75.3385 24.2741 74.8107 23.7143C74.2829 23.1385 73.867 22.4747 73.5631 21.723C73.2752 20.9553 73.1313 20.1396 73.1313 19.2759C73.1313 18.4122 73.2752 17.6045 73.5631 16.8528C73.867 16.0851 74.2829 15.4213 74.8107 14.8615C75.3385 14.2857 75.9543 13.8379 76.658 13.518C77.3777 13.1821 78.1615 13.0142 79.0091 13.0142C79.7769 13.0142 80.4806 13.1341 81.1204 13.374C81.7601 13.614 82.288 13.9978 82.7038 14.5256L83.0397 13.3501H85.8946ZM82.5838 19.3239C82.5838 18.7001 82.4959 18.1803 82.3199 17.7645C82.16 17.3326 81.9361 16.9887 81.6482 16.7328C81.3763 16.4609 81.0484 16.269 80.6645 16.157C80.2967 16.0291 79.8968 15.9651 79.465 15.9651C79.0331 15.9651 78.6253 16.0531 78.2414 16.229C77.8736 16.4049 77.5457 16.6449 77.2578 16.9487C76.9699 17.2366 76.746 17.5885 76.586 18.0044C76.4261 18.4042 76.3461 18.8281 76.3461 19.2759C76.3461 19.7397 76.4261 20.1716 76.586 20.5714C76.746 20.9713 76.9699 21.3232 77.2578 21.627C77.5457 21.9149 77.8736 22.1469 78.2414 22.3228C78.6253 22.4987 79.0331 22.5867 79.465 22.5867C80.3287 22.5867 81.0564 22.3228 81.6482 21.795C82.256 21.2512 82.5678 20.4275 82.5838 19.3239Z" fill="#2F2F2F"/>
<path d="M98.1877 16.4929C98.8595 16.8928 99.3713 17.4046 99.7232 18.0284C100.075 18.6521 100.251 19.3719 100.251 20.1876C100.251 20.9553 100.067 21.675 99.6992 22.3468C99.3313 23.0025 98.8115 23.5863 98.1397 24.0981C97.532 24.562 96.8362 24.9218 96.0525 25.1778C95.2848 25.4177 94.4691 25.5456 93.6054 25.5616C92.7417 25.5616 91.918 25.4417 91.1343 25.2017C90.3506 24.9618 89.6548 24.602 89.0471 24.1221C88.1354 23.4344 87.5116 22.6027 87.1757 21.627L90.5345 20.0676C90.5345 20.2276 90.5905 20.4275 90.7025 20.6674C90.8144 20.9073 90.9903 21.1392 91.2303 21.3631C91.4702 21.5871 91.7821 21.779 92.1659 21.9389C92.5498 22.0989 93.0216 22.1788 93.5814 22.1788C94.0292 22.1788 94.4211 22.1229 94.757 22.0109C95.1089 21.8989 95.3967 21.763 95.6207 21.6031C95.8606 21.4271 96.0365 21.2352 96.1485 21.0273C96.2764 20.8033 96.3404 20.5794 96.3404 20.3555C96.3404 20.0996 96.2524 19.8597 96.0765 19.6358C95.9166 19.4119 95.6606 19.2359 95.3088 19.108C94.669 18.884 93.9893 18.7001 93.2695 18.5562C92.5658 18.3962 91.878 18.2043 91.2063 17.9804C90.5345 17.7405 89.9107 17.4286 89.335 17.0447C88.7592 16.6609 88.3033 16.125 87.9674 15.4373C87.6636 14.8295 87.5116 14.1818 87.5116 13.494C87.5116 12.7263 87.6876 11.9826 88.0394 11.2628C88.4073 10.5431 88.9031 9.9353 89.5269 9.43948C90.1187 8.97565 90.7824 8.62377 91.5182 8.38386C92.2539 8.12795 93.0296 8 93.8453 8C94.661 8 95.4367 8.11996 96.1725 8.35987C96.9242 8.59978 97.5959 8.95165 98.1877 9.41549C98.7635 9.84733 99.2194 10.3511 99.5552 10.9269L96.8202 12.7983C96.4844 12.3344 96.0605 11.9666 95.5487 11.6947C95.0529 11.4068 94.4931 11.2628 93.8693 11.2628C93.0056 11.2628 92.3339 11.4547 91.854 11.8386C91.3902 12.2225 91.1583 12.7263 91.1583 13.3501C91.1583 13.638 91.2862 13.8939 91.5421 14.1178C91.814 14.3417 92.1579 14.5416 92.5738 14.7176C93.0056 14.8935 93.4854 15.0534 94.0132 15.1974C94.5411 15.3253 95.0609 15.4613 95.5727 15.6052C96.1005 15.7332 96.5963 15.8691 97.0601 16.0131C97.524 16.157 97.8998 16.317 98.1877 16.4929Z" fill="#2F2F2F"/>
<path d="M108.269 13.0142C109.117 13.0142 109.901 13.1821 110.62 13.518C111.34 13.8379 111.956 14.2857 112.468 14.8615C112.995 15.4213 113.403 16.0851 113.691 16.8528C113.995 17.6045 114.147 18.4122 114.147 19.2759C114.147 20.1396 113.995 20.9553 113.691 21.723C113.403 22.4747 112.995 23.1385 112.468 23.7143C111.956 24.2741 111.34 24.7219 110.62 25.0578C109.901 25.3777 109.117 25.5376 108.269 25.5376C107.581 25.5376 106.91 25.4177 106.254 25.1778C105.598 24.9218 105.086 24.602 104.718 24.2181V30H101.408V13.3501H104.239L104.718 14.1658C105.182 13.7499 105.702 13.454 106.278 13.2781C106.854 13.1021 107.517 13.0142 108.269 13.0142ZM107.837 22.5867C108.269 22.5867 108.669 22.4987 109.037 22.3228C109.421 22.1469 109.749 21.9149 110.02 21.627C110.308 21.3232 110.532 20.9713 110.692 20.5714C110.868 20.1716 110.956 19.7397 110.956 19.2759C110.956 18.8281 110.868 18.4042 110.692 18.0044C110.532 17.5885 110.308 17.2366 110.02 16.9487C109.749 16.6449 109.421 16.4049 109.037 16.229C108.669 16.0531 108.269 15.9651 107.837 15.9651C107.405 15.9651 106.998 16.0291 106.614 16.157C106.246 16.269 105.918 16.4609 105.63 16.7328C105.358 16.9887 105.142 17.3326 104.982 17.7645C104.822 18.1803 104.742 18.6841 104.742 19.2759C104.742 19.8357 104.822 20.3235 104.982 20.7394C105.142 21.1392 105.358 21.4831 105.63 21.771C105.918 22.0429 106.246 22.2508 106.614 22.3948C106.998 22.5227 107.405 22.5867 107.837 22.5867Z" fill="#2F2F2F"/>
<path d="M127.29 13.3501V25.2497H124.435L124.099 23.9782C123.635 24.602 123.075 25.0178 122.42 25.2257C121.78 25.4337 121.108 25.5376 120.404 25.5376C119.557 25.5376 118.773 25.3777 118.053 25.0578C117.35 24.7219 116.734 24.2741 116.206 23.7143C115.678 23.1385 115.262 22.4747 114.958 21.723C114.67 20.9553 114.527 20.1396 114.527 19.2759C114.527 18.4122 114.67 17.6045 114.958 16.8528C115.262 16.0851 115.678 15.4213 116.206 14.8615C116.734 14.2857 117.35 13.8379 118.053 13.518C118.773 13.1821 119.557 13.0142 120.404 13.0142C121.172 13.0142 121.876 13.1341 122.516 13.374C123.155 13.614 123.683 13.9978 124.099 14.5256L124.435 13.3501H127.29ZM123.979 19.3239C123.979 18.7001 123.891 18.1803 123.715 17.7645C123.555 17.3326 123.331 16.9887 123.043 16.7328C122.772 16.4609 122.444 16.269 122.06 16.157C121.692 16.0291 121.292 15.9651 120.86 15.9651C120.428 15.9651 120.021 16.0531 119.637 16.229C119.269 16.4049 118.941 16.6449 118.653 16.9487C118.365 17.2366 118.141 17.5885 117.981 18.0044C117.821 18.4042 117.741 18.8281 117.741 19.2759C117.741 19.7397 117.821 20.1716 117.981 20.5714C118.141 20.9713 118.365 21.3232 118.653 21.627C118.941 21.9149 119.269 22.1469 119.637 22.3228C120.021 22.4987 120.428 22.5867 120.86 22.5867C121.724 22.5867 122.452 22.3228 123.043 21.795C123.651 21.2512 123.963 20.4275 123.979 19.3239Z" fill="#2F2F2F"/>
<path d="M134.569 15.9651C134.169 15.9651 133.793 16.0611 133.441 16.253C133.089 16.4289 132.777 16.6768 132.506 16.9967C132.25 17.3006 132.042 17.6605 131.882 18.0763C131.738 18.4922 131.666 18.94 131.666 19.4198C131.666 19.8997 131.738 20.3395 131.882 20.7394C132.042 21.1232 132.25 21.4591 132.506 21.747C132.777 22.0189 133.089 22.2348 133.441 22.3948C133.793 22.5547 134.169 22.6347 134.569 22.6347C135.065 22.6347 135.544 22.5227 136.008 22.2988C136.488 22.0589 136.896 21.731 137.232 21.3152L139.271 23.3304C138.711 24.0022 138.024 24.538 137.208 24.9378C136.392 25.3377 135.512 25.5376 134.569 25.5376C133.705 25.5376 132.897 25.3777 132.146 25.0578C131.394 24.7219 130.738 24.2741 130.178 23.7143C129.619 23.1385 129.171 22.4747 128.835 21.723C128.515 20.9553 128.355 20.1396 128.355 19.2759C128.355 18.4122 128.515 17.6045 128.835 16.8528C129.171 16.0851 129.619 15.4213 130.178 14.8615C130.738 14.2857 131.394 13.8379 132.146 13.518C132.897 13.1821 133.705 13.0142 134.569 13.0142C135.544 13.0142 136.448 13.2221 137.28 13.6379C138.112 14.0538 138.815 14.6216 139.391 15.3413L137.088 17.1167C136.624 16.6848 136.2 16.3889 135.816 16.229C135.448 16.0531 135.033 15.9651 134.569 15.9651Z" fill="#2F2F2F"/>
<path d="M146.22 13.0142C147.116 13.0142 147.932 13.1981 148.667 13.566C149.403 13.9178 150.035 14.3897 150.563 14.9815C151.09 15.5573 151.498 16.229 151.786 16.9967C152.074 17.7485 152.218 18.5242 152.218 19.3239C152.218 19.8037 152.154 20.3155 152.026 20.8593H143.533C143.853 21.4031 144.309 21.867 144.901 22.2508C145.492 22.6187 146.132 22.8026 146.82 22.8026C147.508 22.8026 148.107 22.7466 148.619 22.6347C149.147 22.5227 149.643 22.3788 150.107 22.2028L151.21 24.2421C150.619 24.6579 149.939 24.9778 149.171 25.2017C148.419 25.4257 147.612 25.5376 146.748 25.5376C145.804 25.5376 144.925 25.3777 144.109 25.0578C143.293 24.7219 142.581 24.2741 141.974 23.7143C141.366 23.1545 140.886 22.4907 140.534 21.723C140.182 20.9553 140.006 20.1396 140.006 19.2759C140.006 18.4282 140.166 17.6285 140.486 16.8768C140.806 16.1091 141.246 15.4453 141.806 14.8855C142.382 14.3097 143.045 13.8539 143.797 13.518C144.549 13.1821 145.356 13.0142 146.22 13.0142ZM148.931 18.2923C148.739 17.6045 148.395 17.0447 147.9 16.6129C147.404 16.181 146.844 15.9651 146.22 15.9651C145.58 15.9651 144.997 16.181 144.469 16.6129C143.957 17.0447 143.605 17.6045 143.413 18.2923H148.931Z" fill="#2F2F2F"/>
<path d="M18.4996 18.9635C12.4913 25.4742 5.86136 29.1287 3.69111 27.1259C1.52085 25.1232 4.63216 18.2216 10.6404 11.7109C16.6486 5.20012 23.2786 1.54566 25.4489 3.54841C27.6191 5.55116 24.5078 12.4527 18.4996 18.9635Z" fill="#2F2F2F"/>
<path d="M20.3549 20.7583C23.5592 17.2859 27.2125 15.445 28.5147 16.6467C29.8168 17.8483 28.2748 21.6374 25.0704 25.1098C21.866 28.5822 18.2127 30.423 16.9105 29.2214C15.6084 28.0197 17.1505 24.2307 20.3549 20.7583Z" fill="#2F2F2F"/>
</svg>
